# xmcd
#
# Track frame offsets:
#	150
#	22190
#	37787
#	60720
#	72787
#	89212
#	113112
#	129005
#	144010
#	152745
#
# Disc length: 2242 seconds
#
# Revision: 0
# Processed by: cddbd v1.4PL0 Copyright (c) Steve Scherf et al.
# Submitted via: dBpowerAMP V4.0
#
DISCID=7d08c00a
DTITLE=B.B. King - High profile
DYEAR=1900
DGENRE=
TTITLE0=The thrill is gone
TTITLE1=How blue can you get
TTITLE2=Everyday i have the blues
TTITLE3=Paying the cost to be the boss
TTITLE4=It's my own fault
TTITLE5=You've done lost your good thing now
TTITLE6=The letter
TTITLE7=B.B. Boogie
TTITLE8=A new way of driving
TTITLE9=Walkin' and cryin'
EXTD=
EXTT0=
EXTT1=
EXTT2=
EXTT3=
EXTT4=
EXTT5=
EXTT6=
EXTT7=
EXTT8=
EXTT9=
PLAYORDER=
